<mxfile host="app.diagrams.net" modified="2023-10-15T06:25:02.803Z" agent="Mozilla/5.0 (Windows NT 10.0; Win64; x64) AppleWebKit/537.36 (KHTML, like Gecko) Chrome/117.0.0.0 Safari/537.36" etag="SUIvR_xQboeoQhCSzgxr" version="22.0.4" type="device">
  <diagram id="krAkyfecsawdt5dPigB_" name="Page-1">
    <mxGraphModel dx="3096" dy="1211" grid="0" gridSize="10" guides="0" tooltips="1" connect="1" arrows="1" fold="1" page="1" pageScale="1" pageWidth="827" pageHeight="1169" math="0" shadow="0">
      <root>
        <mxCell id="0" />
        <object label="Diagram" id="1">
          <mxCell style="" parent="0" />
        </object>
        <mxCell id="lShEb0nan_wU-JWEXfXT-17" style="edgeStyle=orthogonalEdgeStyle;rounded=0;orthogonalLoop=1;jettySize=auto;html=1;entryX=0;entryY=0.5;entryDx=0;entryDy=0;entryPerimeter=0;" parent="1" source="lShEb0nan_wU-JWEXfXT-1" target="lShEb0nan_wU-JWEXfXT-5" edge="1">
          <mxGeometry relative="1" as="geometry" />
        </mxCell>
        <mxCell id="6nbl6IyGGFge_mR9qVtQ-57" style="edgeStyle=orthogonalEdgeStyle;rounded=0;orthogonalLoop=1;jettySize=auto;html=1;exitX=0;exitY=0.5;exitDx=0;exitDy=0;exitPerimeter=0;startArrow=classic;startFill=1;endArrow=none;endFill=0;" parent="1" source="lShEb0nan_wU-JWEXfXT-1" target="lShEb0nan_wU-JWEXfXT-10" edge="1">
          <mxGeometry relative="1" as="geometry" />
        </mxCell>
        <mxCell id="lShEb0nan_wU-JWEXfXT-1" value="Lambda - CreateJob" style="sketch=0;points=[[0,0,0],[0.25,0,0],[0.5,0,0],[0.75,0,0],[1,0,0],[0,1,0],[0.25,1,0],[0.5,1,0],[0.75,1,0],[1,1,0],[0,0.25,0],[0,0.5,0],[0,0.75,0],[1,0.25,0],[1,0.5,0],[1,0.75,0]];outlineConnect=0;fontColor=#232F3E;gradientColor=#F78E04;gradientDirection=north;fillColor=#D05C17;strokeColor=#ffffff;dashed=0;verticalLabelPosition=bottom;verticalAlign=top;align=center;html=1;fontSize=12;fontStyle=0;aspect=fixed;shape=mxgraph.aws4.resourceIcon;resIcon=mxgraph.aws4.lambda;" parent="1" vertex="1">
          <mxGeometry x="-60" y="363.7" width="78" height="78" as="geometry" />
        </mxCell>
        <mxCell id="lShEb0nan_wU-JWEXfXT-40" style="edgeStyle=orthogonalEdgeStyle;rounded=0;orthogonalLoop=1;jettySize=auto;html=1;exitX=1;exitY=0.5;exitDx=0;exitDy=0;exitPerimeter=0;startArrow=none;startFill=0;endArrow=classic;endFill=1;fillColor=#FFDAA3;" parent="1" source="lShEb0nan_wU-JWEXfXT-5" target="lShEb0nan_wU-JWEXfXT-39" edge="1">
          <mxGeometry relative="1" as="geometry" />
        </mxCell>
        <mxCell id="lShEb0nan_wU-JWEXfXT-5" value="DynamoDB - JobsTable" style="sketch=0;points=[[0,0,0],[0.25,0,0],[0.5,0,0],[0.75,0,0],[1,0,0],[0,1,0],[0.25,1,0],[0.5,1,0],[0.75,1,0],[1,1,0],[0,0.25,0],[0,0.5,0],[0,0.75,0],[1,0.25,0],[1,0.5,0],[1,0.75,0]];outlineConnect=0;fontColor=#232F3E;gradientColor=#4D72F3;gradientDirection=north;fillColor=#3334B9;strokeColor=#ffffff;dashed=0;verticalLabelPosition=bottom;verticalAlign=top;align=center;html=1;fontSize=12;fontStyle=0;aspect=fixed;shape=mxgraph.aws4.resourceIcon;resIcon=mxgraph.aws4.dynamodb;" parent="1" vertex="1">
          <mxGeometry x="120" y="363.7" width="78" height="78" as="geometry" />
        </mxCell>
        <mxCell id="lShEb0nan_wU-JWEXfXT-6" value="API Gateway" style="sketch=0;points=[[0,0,0],[0.25,0,0],[0.5,0,0],[0.75,0,0],[1,0,0],[0,1,0],[0.25,1,0],[0.5,1,0],[0.75,1,0],[1,1,0],[0,0.25,0],[0,0.5,0],[0,0.75,0],[1,0.25,0],[1,0.5,0],[1,0.75,0]];outlineConnect=0;fontColor=#232F3E;gradientColor=#945DF2;gradientDirection=north;fillColor=#5A30B5;strokeColor=#ffffff;dashed=0;verticalLabelPosition=bottom;verticalAlign=top;align=center;html=1;fontSize=12;fontStyle=0;aspect=fixed;shape=mxgraph.aws4.resourceIcon;resIcon=mxgraph.aws4.api_gateway;" parent="1" vertex="1">
          <mxGeometry x="-170" y="479.15" width="55.69" height="55.69" as="geometry" />
        </mxCell>
        <mxCell id="T8QEofqclcsmKLHRJFDh-22" style="edgeStyle=orthogonalEdgeStyle;rounded=0;orthogonalLoop=1;jettySize=auto;html=1;exitX=1;exitY=0.5;exitDx=0;exitDy=0;exitPerimeter=0;entryX=0;entryY=0.5;entryDx=0;entryDy=0;entryPerimeter=0;" parent="1" source="lShEb0nan_wU-JWEXfXT-8" target="T8QEofqclcsmKLHRJFDh-21" edge="1">
          <mxGeometry relative="1" as="geometry" />
        </mxCell>
        <mxCell id="lShEb0nan_wU-JWEXfXT-8" value="SQS - Off-target" style="sketch=0;points=[[0,0,0],[0.25,0,0],[0.5,0,0],[0.75,0,0],[1,0,0],[0,1,0],[0.25,1,0],[0.5,1,0],[0.75,1,0],[1,1,0],[0,0.25,0],[0,0.5,0],[0,0.75,0],[1,0.25,0],[1,0.5,0],[1,0.75,0]];outlineConnect=0;fontColor=#232F3E;gradientColor=#FF4F8B;gradientDirection=north;fillColor=#BC1356;strokeColor=#ffffff;dashed=0;verticalLabelPosition=bottom;verticalAlign=top;align=center;html=1;fontSize=12;fontStyle=0;aspect=fixed;shape=mxgraph.aws4.resourceIcon;resIcon=mxgraph.aws4.sqs;" parent="1" vertex="1">
          <mxGeometry x="1490" y="352.89" width="78" height="78" as="geometry" />
        </mxCell>
        <mxCell id="PnX9oE772hR5VoB__EFH-106" style="edgeStyle=orthogonalEdgeStyle;rounded=0;orthogonalLoop=1;jettySize=auto;html=1;exitX=1;exitY=0.75;exitDx=0;exitDy=0;exitPerimeter=0;entryX=0;entryY=0.5;entryDx=0;entryDy=0;entryPerimeter=0;" parent="1" source="lShEb0nan_wU-JWEXfXT-9" target="lShEb0nan_wU-JWEXfXT-20" edge="1">
          <mxGeometry relative="1" as="geometry" />
        </mxCell>
        <mxCell id="PnX9oE772hR5VoB__EFH-107" style="edgeStyle=orthogonalEdgeStyle;rounded=0;orthogonalLoop=1;jettySize=auto;html=1;exitX=1;exitY=0.25;exitDx=0;exitDy=0;exitPerimeter=0;entryX=0;entryY=0.5;entryDx=0;entryDy=0;entryPerimeter=0;" parent="1" source="lShEb0nan_wU-JWEXfXT-9" target="lShEb0nan_wU-JWEXfXT-8" edge="1">
          <mxGeometry relative="1" as="geometry" />
        </mxCell>
        <mxCell id="lShEb0nan_wU-JWEXfXT-9" value="Lambda - TargetScan" style="sketch=0;points=[[0,0,0],[0.25,0,0],[0.5,0,0],[0.75,0,0],[1,0,0],[0,1,0],[0.25,1,0],[0.5,1,0],[0.75,1,0],[1,1,0],[0,0.25,0],[0,0.5,0],[0,0.75,0],[1,0.25,0],[1,0.5,0],[1,0.75,0]];outlineConnect=0;fontColor=#232F3E;gradientColor=#F78E04;gradientDirection=north;fillColor=#D05C17;strokeColor=#ffffff;dashed=0;verticalLabelPosition=bottom;verticalAlign=top;align=center;html=1;fontSize=12;fontStyle=0;aspect=fixed;shape=mxgraph.aws4.resourceIcon;resIcon=mxgraph.aws4.lambda;" parent="1" vertex="1">
          <mxGeometry x="1320" y="406.9900000000001" width="78" height="78" as="geometry" />
        </mxCell>
        <mxCell id="lShEb0nan_wU-JWEXfXT-10" value="&lt;div&gt;Endpoint - CreateJob&lt;/div&gt;&lt;div&gt;POST&lt;br&gt;&lt;/div&gt;" style="sketch=0;outlineConnect=0;fontColor=#232F3E;gradientColor=none;fillColor=#4D27AA;strokeColor=none;dashed=0;verticalLabelPosition=bottom;verticalAlign=top;align=center;html=1;fontSize=12;fontStyle=0;aspect=fixed;pointerEvents=1;shape=mxgraph.aws4.endpoint;" parent="1" vertex="1">
          <mxGeometry x="-284.34000000000003" y="363.69999999999993" width="78" height="78" as="geometry" />
        </mxCell>
        <mxCell id="lShEb0nan_wU-JWEXfXT-11" value="&lt;div&gt;Endpoint - FetchResults&lt;/div&gt;&lt;div&gt;GET&lt;br&gt;&lt;/div&gt;" style="sketch=0;outlineConnect=0;fontColor=#232F3E;gradientColor=none;fillColor=#4D27AA;strokeColor=none;dashed=0;verticalLabelPosition=bottom;verticalAlign=top;align=center;html=1;fontSize=12;fontStyle=0;aspect=fixed;pointerEvents=1;shape=mxgraph.aws4.endpoint;" parent="1" vertex="1">
          <mxGeometry x="-284.34" y="560" width="78" height="78" as="geometry" />
        </mxCell>
        <mxCell id="T8QEofqclcsmKLHRJFDh-23" style="edgeStyle=orthogonalEdgeStyle;rounded=0;orthogonalLoop=1;jettySize=auto;html=1;exitX=1;exitY=0.5;exitDx=0;exitDy=0;exitPerimeter=0;entryX=0;entryY=0.5;entryDx=0;entryDy=0;entryPerimeter=0;" parent="1" source="lShEb0nan_wU-JWEXfXT-20" target="T8QEofqclcsmKLHRJFDh-19" edge="1">
          <mxGeometry relative="1" as="geometry" />
        </mxCell>
        <mxCell id="lShEb0nan_wU-JWEXfXT-20" value="SQS - On-target" style="sketch=0;points=[[0,0,0],[0.25,0,0],[0.5,0,0],[0.75,0,0],[1,0,0],[0,1,0],[0.25,1,0],[0.5,1,0],[0.75,1,0],[1,1,0],[0,0.25,0],[0,0.5,0],[0,0.75,0],[1,0.25,0],[1,0.5,0],[1,0.75,0]];outlineConnect=0;fontColor=#232F3E;gradientColor=#FF4F8B;gradientDirection=north;fillColor=#BC1356;strokeColor=#ffffff;dashed=0;verticalLabelPosition=bottom;verticalAlign=top;align=center;html=1;fontSize=12;fontStyle=0;aspect=fixed;shape=mxgraph.aws4.resourceIcon;resIcon=mxgraph.aws4.sqs;" parent="1" vertex="1">
          <mxGeometry x="1490" y="468.00000000000006" width="78" height="78" as="geometry" />
        </mxCell>
        <mxCell id="lShEb0nan_wU-JWEXfXT-38" value="&lt;div&gt;S3 - Frontend&lt;br&gt;&lt;/div&gt;" style="sketch=0;points=[[0,0,0],[0.25,0,0],[0.5,0,0],[0.75,0,0],[1,0,0],[0,1,0],[0.25,1,0],[0.5,1,0],[0.75,1,0],[1,1,0],[0,0.25,0],[0,0.5,0],[0,0.75,0],[1,0.25,0],[1,0.5,0],[1,0.75,0]];outlineConnect=0;fontColor=#232F3E;gradientColor=#60A337;gradientDirection=north;fillColor=#277116;strokeColor=#ffffff;dashed=0;verticalLabelPosition=bottom;verticalAlign=top;align=center;html=1;fontSize=12;fontStyle=0;aspect=fixed;shape=mxgraph.aws4.resourceIcon;resIcon=mxgraph.aws4.s3;" parent="1" vertex="1">
          <mxGeometry x="-61" y="174.86" width="80" height="80" as="geometry" />
        </mxCell>
        <mxCell id="XJK-BqBHf_a6RxVuGPUH-28" style="edgeStyle=orthogonalEdgeStyle;rounded=0;orthogonalLoop=1;jettySize=auto;html=1;entryX=0;entryY=0.5;entryDx=0;entryDy=0;entryPerimeter=0;" parent="1" source="lShEb0nan_wU-JWEXfXT-39" target="XJK-BqBHf_a6RxVuGPUH-12" edge="1">
          <mxGeometry relative="1" as="geometry">
            <mxPoint x="590" y="403.8888888888889" as="targetPoint" />
          </mxGeometry>
        </mxCell>
        <mxCell id="lShEb0nan_wU-JWEXfXT-39" value="DynamoDB Stream" style="sketch=0;outlineConnect=0;fontColor=#232F3E;gradientColor=none;fillColor=#2E27AD;strokeColor=none;dashed=0;verticalLabelPosition=bottom;verticalAlign=top;align=center;html=1;fontSize=12;fontStyle=0;aspect=fixed;pointerEvents=1;shape=mxgraph.aws4.dynamodb_stream;" parent="1" vertex="1">
          <mxGeometry x="260" y="363.7" width="78" height="78" as="geometry" />
        </mxCell>
        <mxCell id="XJK-BqBHf_a6RxVuGPUH-8" style="edgeStyle=orthogonalEdgeStyle;rounded=0;orthogonalLoop=1;jettySize=auto;html=1;exitX=1;exitY=0.5;exitDx=0;exitDy=0;exitPerimeter=0;entryX=0;entryY=0.5;entryDx=0;entryDy=0;entryPerimeter=0;" parent="1" source="XJK-BqBHf_a6RxVuGPUH-9" target="T8QEofqclcsmKLHRJFDh-13" edge="1">
          <mxGeometry relative="1" as="geometry">
            <mxPoint x="1280.19" y="415.15499999999986" as="targetPoint" />
          </mxGeometry>
        </mxCell>
        <mxCell id="XJK-BqBHf_a6RxVuGPUH-9" value="SQS - IsslCreation" style="sketch=0;points=[[0,0,0],[0.25,0,0],[0.5,0,0],[0.75,0,0],[1,0,0],[0,1,0],[0.25,1,0],[0.5,1,0],[0.75,1,0],[1,1,0],[0,0.25,0],[0,0.5,0],[0,0.75,0],[1,0.25,0],[1,0.5,0],[1,0.75,0]];outlineConnect=0;fontColor=#232F3E;gradientColor=#FF4F8B;gradientDirection=north;fillColor=#BC1356;strokeColor=#ffffff;dashed=0;verticalLabelPosition=bottom;verticalAlign=top;align=center;html=1;fontSize=12;fontStyle=0;aspect=fixed;shape=mxgraph.aws4.resourceIcon;resIcon=mxgraph.aws4.sqs;" parent="1" vertex="1">
          <mxGeometry x="740.0000000000002" y="362.8500000000001" width="78" height="78" as="geometry" />
        </mxCell>
        <mxCell id="T8QEofqclcsmKLHRJFDh-40" style="edgeStyle=orthogonalEdgeStyle;rounded=0;orthogonalLoop=1;jettySize=auto;html=1;exitX=1;exitY=0.5;exitDx=0;exitDy=0;exitPerimeter=0;entryX=0;entryY=0.5;entryDx=0;entryDy=0;" parent="1" source="XJK-BqBHf_a6RxVuGPUH-12" target="T8QEofqclcsmKLHRJFDh-43" edge="1">
          <mxGeometry relative="1" as="geometry">
            <mxPoint x="560.4099999999999" y="400.67500000000024" as="targetPoint" />
          </mxGeometry>
        </mxCell>
        <mxCell id="XJK-BqBHf_a6RxVuGPUH-12" value="Lambda - Downloader" style="sketch=0;points=[[0,0,0],[0.25,0,0],[0.5,0,0],[0.75,0,0],[1,0,0],[0,1,0],[0.25,1,0],[0.5,1,0],[0.75,1,0],[1,1,0],[0,0.25,0],[0,0.5,0],[0,0.75,0],[1,0.25,0],[1,0.5,0],[1,0.75,0]];outlineConnect=0;fontColor=#232F3E;gradientColor=#F78E04;gradientDirection=north;fillColor=#D05C17;strokeColor=#ffffff;dashed=0;verticalLabelPosition=bottom;verticalAlign=top;align=center;html=1;fontSize=12;fontStyle=0;aspect=fixed;shape=mxgraph.aws4.resourceIcon;resIcon=mxgraph.aws4.lambda;" parent="1" vertex="1">
          <mxGeometry x="440" y="363.7" width="76.3" height="76.3" as="geometry" />
        </mxCell>
        <mxCell id="XJK-BqBHf_a6RxVuGPUH-48" style="edgeStyle=orthogonalEdgeStyle;rounded=0;orthogonalLoop=1;jettySize=auto;html=1;entryX=0;entryY=0.5;entryDx=0;entryDy=0;entryPerimeter=0;startArrow=none;startFill=0;" parent="1" source="XJK-BqBHf_a6RxVuGPUH-46" target="lShEb0nan_wU-JWEXfXT-9" edge="1">
          <mxGeometry relative="1" as="geometry" />
        </mxCell>
        <mxCell id="XJK-BqBHf_a6RxVuGPUH-46" value="SQS - TargetScan" style="sketch=0;points=[[0,0,0],[0.25,0,0],[0.5,0,0],[0.75,0,0],[1,0,0],[0,1,0],[0.25,1,0],[0.5,1,0],[0.75,1,0],[1,1,0],[0,0.25,0],[0,0.5,0],[0,0.75,0],[1,0.25,0],[1,0.5,0],[1,0.75,0]];outlineConnect=0;fontColor=#232F3E;gradientColor=#FF4F8B;gradientDirection=north;fillColor=#BC1356;strokeColor=#ffffff;dashed=0;verticalLabelPosition=bottom;verticalAlign=top;align=center;html=1;fontSize=12;fontStyle=0;aspect=fixed;shape=mxgraph.aws4.resourceIcon;resIcon=mxgraph.aws4.sqs;" parent="1" vertex="1">
          <mxGeometry x="1140" y="406.99000000000007" width="78" height="78" as="geometry" />
        </mxCell>
        <mxCell id="PnX9oE772hR5VoB__EFH-12" value="Store .issl and .offtarget files" style="text;html=1;strokeColor=none;fillColor=none;align=center;verticalAlign=middle;whiteSpace=wrap;rounded=0;" parent="1" vertex="1">
          <mxGeometry x="1070" y="287.10999999999996" width="100" height="55.11" as="geometry" />
        </mxCell>
        <mxCell id="PnX9oE772hR5VoB__EFH-90" style="edgeStyle=orthogonalEdgeStyle;rounded=0;orthogonalLoop=1;jettySize=auto;html=1;entryX=0;entryY=0.25;entryDx=0;entryDy=0;entryPerimeter=0;exitX=1;exitY=0.5;exitDx=0;exitDy=0;exitPerimeter=0;" parent="1" source="T8QEofqclcsmKLHRJFDh-13" target="XJK-BqBHf_a6RxVuGPUH-46" edge="1">
          <mxGeometry relative="1" as="geometry">
            <mxPoint x="1210" y="426" as="sourcePoint" />
            <Array as="points">
              <mxPoint x="1070" y="401" />
              <mxPoint x="1070" y="427" />
            </Array>
          </mxGeometry>
        </mxCell>
        <mxCell id="PnX9oE772hR5VoB__EFH-103" style="edgeStyle=orthogonalEdgeStyle;rounded=0;orthogonalLoop=1;jettySize=auto;html=1;fillColor=#f8cecc;gradientColor=#ea6b66;strokeColor=#000000;exitX=1;exitY=0.25;exitDx=0;exitDy=0;exitPerimeter=0;entryX=1;entryY=0.75;entryDx=0;entryDy=0;entryPerimeter=0;" parent="1" source="T8QEofqclcsmKLHRJFDh-13" target="yxyMRoZ1tEUUTZVGHeQR-15" edge="1">
          <mxGeometry relative="1" as="geometry">
            <Array as="points">
              <mxPoint x="978" y="381" />
              <mxPoint x="978" y="380" />
              <mxPoint x="1070" y="380" />
              <mxPoint x="1070" y="234" />
            </Array>
            <mxPoint x="969.19" y="415.58000000000004" as="sourcePoint" />
            <mxPoint x="1130" y="160" as="targetPoint" />
          </mxGeometry>
        </mxCell>
        <mxCell id="T8QEofqclcsmKLHRJFDh-13" value="Lambda - IsslCreation" style="sketch=0;points=[[0,0,0],[0.25,0,0],[0.5,0,0],[0.75,0,0],[1,0,0],[0,1,0],[0.25,1,0],[0.5,1,0],[0.75,1,0],[1,1,0],[0,0.25,0],[0,0.5,0],[0,0.75,0],[1,0.25,0],[1,0.5,0],[1,0.75,0]];outlineConnect=0;fontColor=#232F3E;gradientColor=#F78E04;gradientDirection=north;fillColor=#D05C17;strokeColor=#ffffff;dashed=0;verticalLabelPosition=bottom;verticalAlign=top;align=center;html=1;fontSize=12;fontStyle=0;aspect=fixed;shape=mxgraph.aws4.resourceIcon;resIcon=mxgraph.aws4.lambda;" parent="1" vertex="1">
          <mxGeometry x="930" y="362" width="78" height="78" as="geometry" />
        </mxCell>
        <mxCell id="T8QEofqclcsmKLHRJFDh-24" style="rounded=0;orthogonalLoop=1;jettySize=auto;html=1;exitX=1;exitY=0.5;exitDx=0;exitDy=0;exitPerimeter=0;fillColor=#f8cecc;strokeColor=#000000;endArrow=none;endFill=0;" parent="1" source="T8QEofqclcsmKLHRJFDh-19" edge="1">
          <mxGeometry relative="1" as="geometry">
            <mxPoint x="1790" y="507" as="targetPoint" />
          </mxGeometry>
        </mxCell>
        <mxCell id="T8QEofqclcsmKLHRJFDh-19" value="Lambda - On-target &lt;br&gt;evaluation" style="sketch=0;points=[[0,0,0],[0.25,0,0],[0.5,0,0],[0.75,0,0],[1,0,0],[0,1,0],[0.25,1,0],[0.5,1,0],[0.75,1,0],[1,1,0],[0,0.25,0],[0,0.5,0],[0,0.75,0],[1,0.25,0],[1,0.5,0],[1,0.75,0]];outlineConnect=0;fontColor=#232F3E;gradientColor=#F78E04;gradientDirection=north;fillColor=#D05C17;strokeColor=#ffffff;dashed=0;verticalLabelPosition=bottom;verticalAlign=top;align=center;html=1;fontSize=12;fontStyle=0;aspect=fixed;shape=mxgraph.aws4.resourceIcon;resIcon=mxgraph.aws4.lambda;" parent="1" vertex="1">
          <mxGeometry x="1640" y="468.00000000000006" width="78" height="78" as="geometry" />
        </mxCell>
        <mxCell id="CULJqqf-9Fbqz_P_JE7p-6" style="edgeStyle=orthogonalEdgeStyle;rounded=0;orthogonalLoop=1;jettySize=auto;html=1;exitX=1;exitY=0.5;exitDx=0;exitDy=0;exitPerimeter=0;entryX=0;entryY=0.5;entryDx=0;entryDy=0;" edge="1" parent="1" source="T8QEofqclcsmKLHRJFDh-21" target="CULJqqf-9Fbqz_P_JE7p-5">
          <mxGeometry relative="1" as="geometry">
            <Array as="points">
              <mxPoint x="1790" y="392" />
              <mxPoint x="1790" y="452" />
            </Array>
          </mxGeometry>
        </mxCell>
        <mxCell id="T8QEofqclcsmKLHRJFDh-21" value="Lambda - Off-target &lt;br&gt;evaluation" style="sketch=0;points=[[0,0,0],[0.25,0,0],[0.5,0,0],[0.75,0,0],[1,0,0],[0,1,0],[0.25,1,0],[0.5,1,0],[0.75,1,0],[1,1,0],[0,0.25,0],[0,0.5,0],[0,0.75,0],[1,0.25,0],[1,0.5,0],[1,0.75,0]];outlineConnect=0;fontColor=#232F3E;gradientColor=#F78E04;gradientDirection=north;fillColor=#D05C17;strokeColor=#ffffff;dashed=0;verticalLabelPosition=bottom;verticalAlign=top;align=center;html=1;fontSize=12;fontStyle=0;aspect=fixed;shape=mxgraph.aws4.resourceIcon;resIcon=mxgraph.aws4.lambda;" parent="1" vertex="1">
          <mxGeometry x="1640" y="352.89000000000004" width="78" height="78" as="geometry" />
        </mxCell>
        <mxCell id="T8QEofqclcsmKLHRJFDh-44" style="edgeStyle=orthogonalEdgeStyle;rounded=0;orthogonalLoop=1;jettySize=auto;html=1;exitX=0.5;exitY=1;exitDx=0;exitDy=0;entryX=0;entryY=0.75;entryDx=0;entryDy=0;entryPerimeter=0;" parent="1" source="T8QEofqclcsmKLHRJFDh-43" target="XJK-BqBHf_a6RxVuGPUH-46" edge="1">
          <mxGeometry relative="1" as="geometry">
            <Array as="points">
              <mxPoint x="605" y="500" />
              <mxPoint x="1070" y="500" />
              <mxPoint x="1070" y="465" />
            </Array>
          </mxGeometry>
        </mxCell>
        <mxCell id="6nbl6IyGGFge_mR9qVtQ-2" value="Yes" style="edgeLabel;html=1;align=center;verticalAlign=middle;resizable=0;points=[];" parent="T8QEofqclcsmKLHRJFDh-44" vertex="1" connectable="0">
          <mxGeometry x="-0.9124" y="-1" relative="1" as="geometry">
            <mxPoint as="offset" />
          </mxGeometry>
        </mxCell>
        <mxCell id="yxyMRoZ1tEUUTZVGHeQR-3" style="edgeStyle=orthogonalEdgeStyle;rounded=0;orthogonalLoop=1;jettySize=auto;html=1;exitX=1;exitY=0.5;exitDx=0;exitDy=0;entryX=0;entryY=0.5;entryDx=0;entryDy=0;entryPerimeter=0;" parent="1" source="T8QEofqclcsmKLHRJFDh-43" target="XJK-BqBHf_a6RxVuGPUH-9" edge="1">
          <mxGeometry relative="1" as="geometry" />
        </mxCell>
        <mxCell id="yxyMRoZ1tEUUTZVGHeQR-7" value="No" style="edgeLabel;html=1;align=center;verticalAlign=middle;resizable=0;points=[];" parent="yxyMRoZ1tEUUTZVGHeQR-3" vertex="1" connectable="0">
          <mxGeometry x="-0.2013" y="-2" relative="1" as="geometry">
            <mxPoint as="offset" />
          </mxGeometry>
        </mxCell>
        <mxCell id="T8QEofqclcsmKLHRJFDh-43" value="Does&lt;br style=&quot;border-color: var(--border-color);&quot;&gt;.issl file &lt;br&gt;exist?" style="rhombus;whiteSpace=wrap;html=1;fillColor=none;" parent="1" vertex="1">
          <mxGeometry x="550" y="363.7" width="110" height="76.3" as="geometry" />
        </mxCell>
        <mxCell id="yxyMRoZ1tEUUTZVGHeQR-15" value="S3 - genomeStorage" style="sketch=0;points=[[0,0,0],[0.25,0,0],[0.5,0,0],[0.75,0,0],[1,0,0],[0,1,0],[0.25,1,0],[0.5,1,0],[0.75,1,0],[1,1,0],[0,0.25,0],[0,0.5,0],[0,0.75,0],[1,0.25,0],[1,0.5,0],[1,0.75,0]];outlineConnect=0;fontColor=#232F3E;gradientColor=#60A337;gradientDirection=north;fillColor=#277116;strokeColor=#ffffff;dashed=0;verticalLabelPosition=bottom;verticalAlign=top;align=center;html=1;fontSize=12;fontStyle=0;aspect=fixed;shape=mxgraph.aws4.resourceIcon;resIcon=mxgraph.aws4.s3;" parent="1" vertex="1">
          <mxGeometry x="940" y="175.86000000000007" width="78" height="78" as="geometry" />
        </mxCell>
        <mxCell id="6nbl6IyGGFge_mR9qVtQ-3" style="edgeStyle=orthogonalEdgeStyle;rounded=0;orthogonalLoop=1;jettySize=auto;html=1;exitX=0;exitY=0.25;exitDx=0;exitDy=0;exitPerimeter=0;entryX=0.25;entryY=0;entryDx=0;entryDy=0;entryPerimeter=0;" parent="1" source="yxyMRoZ1tEUUTZVGHeQR-15" target="XJK-BqBHf_a6RxVuGPUH-12" edge="1">
          <mxGeometry relative="1" as="geometry">
            <mxPoint x="497" y="364" as="targetPoint" />
            <Array as="points">
              <mxPoint x="459" y="195" />
            </Array>
          </mxGeometry>
        </mxCell>
        <mxCell id="6nbl6IyGGFge_mR9qVtQ-5" value="Check genome specific .fasta and .issl files" style="text;html=1;strokeColor=none;fillColor=none;align=center;verticalAlign=middle;whiteSpace=wrap;rounded=0;" parent="1" vertex="1">
          <mxGeometry x="590" y="168" width="250" height="30" as="geometry" />
        </mxCell>
        <mxCell id="6nbl6IyGGFge_mR9qVtQ-6" style="edgeStyle=orthogonalEdgeStyle;rounded=0;orthogonalLoop=1;jettySize=auto;html=1;exitX=0;exitY=0.75;exitDx=0;exitDy=0;exitPerimeter=0;entryX=0;entryY=0.25;entryDx=0;entryDy=0;entryPerimeter=0;" parent="1" source="yxyMRoZ1tEUUTZVGHeQR-15" target="T8QEofqclcsmKLHRJFDh-13" edge="1">
          <mxGeometry relative="1" as="geometry">
            <Array as="points">
              <mxPoint x="870" y="234" />
              <mxPoint x="870" y="381" />
            </Array>
          </mxGeometry>
        </mxCell>
        <mxCell id="6nbl6IyGGFge_mR9qVtQ-7" value="Provide .fasta file" style="text;html=1;strokeColor=none;fillColor=none;align=center;verticalAlign=middle;whiteSpace=wrap;rounded=0;" parent="1" vertex="1">
          <mxGeometry x="870" y="285.8299999999999" width="70" height="57.66" as="geometry" />
        </mxCell>
        <mxCell id="6nbl6IyGGFge_mR9qVtQ-8" style="edgeStyle=orthogonalEdgeStyle;rounded=0;orthogonalLoop=1;jettySize=auto;html=1;exitX=1;exitY=0.25;exitDx=0;exitDy=0;exitPerimeter=0;entryX=0.5;entryY=0;entryDx=0;entryDy=0;entryPerimeter=0;" parent="1" source="yxyMRoZ1tEUUTZVGHeQR-15" target="T8QEofqclcsmKLHRJFDh-21" edge="1">
          <mxGeometry relative="1" as="geometry" />
        </mxCell>
        <mxCell id="6nbl6IyGGFge_mR9qVtQ-9" value="Provide .issl file based on genome" style="text;html=1;strokeColor=none;fillColor=none;align=center;verticalAlign=middle;whiteSpace=wrap;rounded=0;" parent="1" vertex="1">
          <mxGeometry x="1250" y="168" width="250" height="30" as="geometry" />
        </mxCell>
        <mxCell id="6nbl6IyGGFge_mR9qVtQ-27" value="" style="group" parent="1" vertex="1" connectable="0">
          <mxGeometry x="-279.31" y="168" width="87.66" height="119.11" as="geometry" />
        </mxCell>
        <mxCell id="6nbl6IyGGFge_mR9qVtQ-14" value="" style="shape=image;verticalLabelPosition=bottom;labelBackgroundColor=default;verticalAlign=top;aspect=fixed;imageAspect=0;image=https://cdn.worldvectorlogo.com/logos/aws-cloudfront.svg;" parent="6nbl6IyGGFge_mR9qVtQ-27" vertex="1">
          <mxGeometry width="77.8674392814591" height="93.71820639721383" as="geometry" />
        </mxCell>
        <mxCell id="6nbl6IyGGFge_mR9qVtQ-26" value="Cloudfront" style="text;html=1;align=center;verticalAlign=middle;resizable=0;points=[];autosize=1;strokeColor=none;fillColor=none;" parent="6nbl6IyGGFge_mR9qVtQ-27" vertex="1">
          <mxGeometry x="-5.028342585249769" y="86.0238888888889" width="80" height="30" as="geometry" />
        </mxCell>
        <mxCell id="6nbl6IyGGFge_mR9qVtQ-56" style="edgeStyle=orthogonalEdgeStyle;rounded=0;orthogonalLoop=1;jettySize=auto;html=1;exitX=0;exitY=0.5;exitDx=0;exitDy=0;exitPerimeter=0;startArrow=classic;startFill=1;" parent="1" source="lShEb0nan_wU-JWEXfXT-4" target="lShEb0nan_wU-JWEXfXT-11" edge="1">
          <mxGeometry relative="1" as="geometry" />
        </mxCell>
        <mxCell id="lShEb0nan_wU-JWEXfXT-4" value="DynamoDB - TargetsTable" style="sketch=0;points=[[0,0,0],[0.25,0,0],[0.5,0,0],[0.75,0,0],[1,0,0],[0,1,0],[0.25,1,0],[0.5,1,0],[0.75,1,0],[1,1,0],[0,0.25,0],[0,0.5,0],[0,0.75,0],[1,0.25,0],[1,0.5,0],[1,0.75,0]];outlineConnect=0;fontColor=#232F3E;gradientColor=#4D72F3;gradientDirection=north;fillColor=#3334B9;strokeColor=#ffffff;dashed=0;verticalLabelPosition=bottom;verticalAlign=top;align=center;html=1;fontSize=12;fontStyle=0;aspect=fixed;shape=mxgraph.aws4.resourceIcon;resIcon=mxgraph.aws4.dynamodb;" parent="1" vertex="1">
          <mxGeometry x="120" y="620" width="78" height="78" as="geometry" />
        </mxCell>
        <mxCell id="6nbl6IyGGFge_mR9qVtQ-29" style="edgeStyle=orthogonalEdgeStyle;rounded=0;orthogonalLoop=1;jettySize=auto;html=1;exitX=1;exitY=0.5;exitDx=0;exitDy=0;exitPerimeter=0;entryX=1;entryY=0.5;entryDx=0;entryDy=0;entryPerimeter=0;" parent="1" source="T8QEofqclcsmKLHRJFDh-21" target="lShEb0nan_wU-JWEXfXT-4" edge="1">
          <mxGeometry relative="1" as="geometry">
            <Array as="points">
              <mxPoint x="1790" y="392" />
              <mxPoint x="1790" y="659" />
            </Array>
          </mxGeometry>
        </mxCell>
        <mxCell id="6nbl6IyGGFge_mR9qVtQ-34" style="edgeStyle=orthogonalEdgeStyle;rounded=0;orthogonalLoop=1;jettySize=auto;html=1;exitX=1;exitY=0.5;exitDx=0;exitDy=0;entryX=0;entryY=0.5;entryDx=0;entryDy=0;entryPerimeter=0;" parent="1" source="6nbl6IyGGFge_mR9qVtQ-14" target="lShEb0nan_wU-JWEXfXT-38" edge="1">
          <mxGeometry relative="1" as="geometry" />
        </mxCell>
        <mxCell id="6nbl6IyGGFge_mR9qVtQ-39" style="edgeStyle=orthogonalEdgeStyle;rounded=0;orthogonalLoop=1;jettySize=auto;html=1;exitX=1;exitY=0.5;exitDx=0;exitDy=0;entryX=0;entryY=0.5;entryDx=0;entryDy=0;" parent="1" source="6nbl6IyGGFge_mR9qVtQ-52" target="6nbl6IyGGFge_mR9qVtQ-14" edge="1">
          <mxGeometry relative="1" as="geometry">
            <mxPoint x="-440" y="410" as="sourcePoint" />
            <Array as="points">
              <mxPoint x="-380" y="403" />
              <mxPoint x="-380" y="215" />
            </Array>
          </mxGeometry>
        </mxCell>
        <mxCell id="6nbl6IyGGFge_mR9qVtQ-50" value="" style="group" parent="1" vertex="1" connectable="0">
          <mxGeometry x="-553" y="332.7" width="140" height="140" as="geometry" />
        </mxCell>
        <mxCell id="6nbl6IyGGFge_mR9qVtQ-54" style="edgeStyle=orthogonalEdgeStyle;rounded=0;orthogonalLoop=1;jettySize=auto;html=1;exitX=1;exitY=0.5;exitDx=0;exitDy=0;" parent="6nbl6IyGGFge_mR9qVtQ-50" source="6nbl6IyGGFge_mR9qVtQ-52" edge="1">
          <mxGeometry relative="1" as="geometry">
            <mxPoint x="263" y="70.30000000000001" as="targetPoint" />
          </mxGeometry>
        </mxCell>
        <mxCell id="6nbl6IyGGFge_mR9qVtQ-52" value="" style="whiteSpace=wrap;html=1;aspect=fixed;strokeColor=none;fillColor=none;" parent="6nbl6IyGGFge_mR9qVtQ-50" vertex="1">
          <mxGeometry width="140" height="140" as="geometry" />
        </mxCell>
        <mxCell id="6nbl6IyGGFge_mR9qVtQ-53" value="Client" style="points=[];aspect=fixed;html=1;align=center;shadow=0;dashed=0;image;image=img/lib/allied_telesis/computer_and_terminals/Personal_Computer.svg;" parent="6nbl6IyGGFge_mR9qVtQ-50" vertex="1">
          <mxGeometry x="31.309999999999945" y="7.569999999999936" width="77.38" height="104.86" as="geometry" />
        </mxCell>
        <mxCell id="6nbl6IyGGFge_mR9qVtQ-55" style="edgeStyle=orthogonalEdgeStyle;rounded=0;orthogonalLoop=1;jettySize=auto;html=1;startArrow=classic;startFill=1;endArrow=none;endFill=0;" parent="1" target="lShEb0nan_wU-JWEXfXT-11" edge="1">
          <mxGeometry relative="1" as="geometry">
            <mxPoint x="-380" y="403" as="sourcePoint" />
            <Array as="points">
              <mxPoint x="-380" y="600" />
            </Array>
          </mxGeometry>
        </mxCell>
        <mxCell id="7VamgS9gIT3rCPv1MD8X-1" style="edgeStyle=orthogonalEdgeStyle;rounded=0;orthogonalLoop=1;jettySize=auto;html=1;exitX=0.75;exitY=0;exitDx=0;exitDy=0;exitPerimeter=0;entryX=0;entryY=0.5;entryDx=0;entryDy=0;entryPerimeter=0;" parent="1" source="XJK-BqBHf_a6RxVuGPUH-12" target="yxyMRoZ1tEUUTZVGHeQR-15" edge="1">
          <mxGeometry relative="1" as="geometry" />
        </mxCell>
        <mxCell id="7VamgS9gIT3rCPv1MD8X-4" value="Store .fasta file" style="text;html=1;strokeColor=none;fillColor=none;align=center;verticalAlign=middle;whiteSpace=wrap;rounded=0;" parent="1" vertex="1">
          <mxGeometry x="500" y="260" width="60" height="55.11" as="geometry" />
        </mxCell>
        <mxCell id="CULJqqf-9Fbqz_P_JE7p-1" value="DynamoDB - TaskTrackingTable" style="sketch=0;points=[[0,0,0],[0.25,0,0],[0.5,0,0],[0.75,0,0],[1,0,0],[0,1,0],[0.25,1,0],[0.5,1,0],[0.75,1,0],[1,1,0],[0,0.25,0],[0,0.5,0],[0,0.75,0],[1,0.25,0],[1,0.5,0],[1,0.75,0]];outlineConnect=0;fontColor=#232F3E;gradientColor=#4D72F3;gradientDirection=north;fillColor=#3334B9;strokeColor=#ffffff;dashed=0;verticalLabelPosition=bottom;verticalAlign=top;align=center;html=1;fontSize=12;fontStyle=0;aspect=fixed;shape=mxgraph.aws4.resourceIcon;resIcon=mxgraph.aws4.dynamodb;" vertex="1" parent="1">
          <mxGeometry x="120" y="490" width="78" height="78" as="geometry" />
        </mxCell>
        <mxCell id="CULJqqf-9Fbqz_P_JE7p-3" style="edgeStyle=orthogonalEdgeStyle;rounded=0;orthogonalLoop=1;jettySize=auto;html=1;exitX=1;exitY=0.5;exitDx=0;exitDy=0;exitPerimeter=0;entryX=0;entryY=0.5;entryDx=0;entryDy=0;entryPerimeter=0;" edge="1" parent="1" source="lShEb0nan_wU-JWEXfXT-1" target="CULJqqf-9Fbqz_P_JE7p-1">
          <mxGeometry relative="1" as="geometry" />
        </mxCell>
        <mxCell id="CULJqqf-9Fbqz_P_JE7p-4" style="edgeStyle=orthogonalEdgeStyle;rounded=0;orthogonalLoop=1;jettySize=auto;html=1;exitX=1;exitY=0.5;exitDx=0;exitDy=0;exitPerimeter=0;entryX=1;entryY=0.5;entryDx=0;entryDy=0;entryPerimeter=0;" edge="1" parent="1" source="lShEb0nan_wU-JWEXfXT-4" target="CULJqqf-9Fbqz_P_JE7p-1">
          <mxGeometry relative="1" as="geometry">
            <Array as="points">
              <mxPoint x="280" y="660" />
              <mxPoint x="280" y="530" />
              <mxPoint x="198" y="530" />
            </Array>
          </mxGeometry>
        </mxCell>
        <mxCell id="CULJqqf-9Fbqz_P_JE7p-5" value="Are All Tasks Completed?" style="rhombus;whiteSpace=wrap;html=1;fillColor=none;" vertex="1" parent="1">
          <mxGeometry x="1840" y="413.7" width="110" height="76.3" as="geometry" />
        </mxCell>
        <mxCell id="CULJqqf-9Fbqz_P_JE7p-7" value="Lambda - Notifier" style="sketch=0;points=[[0,0,0],[0.25,0,0],[0.5,0,0],[0.75,0,0],[1,0,0],[0,1,0],[0.25,1,0],[0.5,1,0],[0.75,1,0],[1,1,0],[0,0.25,0],[0,0.5,0],[0,0.75,0],[1,0.25,0],[1,0.5,0],[1,0.75,0]];outlineConnect=0;fontColor=#232F3E;gradientColor=#F78E04;gradientDirection=north;fillColor=#D05C17;strokeColor=#ffffff;dashed=0;verticalLabelPosition=bottom;verticalAlign=top;align=center;html=1;fontSize=12;fontStyle=0;aspect=fixed;shape=mxgraph.aws4.resourceIcon;resIcon=mxgraph.aws4.lambda;" vertex="1" parent="1">
          <mxGeometry x="1990" y="413.0000000000001" width="78" height="78" as="geometry" />
        </mxCell>
        <mxCell id="CULJqqf-9Fbqz_P_JE7p-12" style="edgeStyle=orthogonalEdgeStyle;rounded=0;orthogonalLoop=1;jettySize=auto;html=1;exitX=1;exitY=0.5;exitDx=0;exitDy=0;entryX=0;entryY=0.5;entryDx=0;entryDy=0;entryPerimeter=0;" edge="1" parent="1" source="CULJqqf-9Fbqz_P_JE7p-5" target="CULJqqf-9Fbqz_P_JE7p-7">
          <mxGeometry relative="1" as="geometry" />
        </mxCell>
        <object label="Annotations" id="lShEb0nan_wU-JWEXfXT-28">
          <mxCell parent="0" />
        </object>
      </root>
    </mxGraphModel>
  </diagram>
</mxfile>
